<svg width="512" height="512" viewBox="0 0 512 512" xmlns="http://www.w3.org/2000/svg">
  <defs><filter id="shadow" x="-30%" y="-30%" width="160%" height="160%">
    <feDropShadow dx="0" dy="10" stdDeviation="14" flood-color="#000812" flood-opacity="0.30"/></filter></defs>
  <rect width="512" height="512" fill="#1d2e57"/>
  <g transform="translate(256,256) scale(1.12) translate(-256,-256)">
  <g transform="translate(-11,-18) scale(1.04)">
    <path d="M249.48,436.11 C248.99,435.73 247.51,434.63 246.55,433.86 C245.59,433.09 244.64,432.30 243.72,431.47 C242.79,430.64 241.90,429.77 241.02,428.88 C240.15,428.00 239.30,427.07 238.45,426.14 C237.60,425.22 236.77,424.27 235.94,423.32 C235.10,422.38 234.28,421.43 233.45,420.48 C232.62,419.52 231.80,418.57 230.98,417.62 C230.15,416.66 229.33,415.71 228.51,414.75 C227.69,413.79 226.88,412.83 226.07,411.86 C225.26,410.90 224.45,409.93 223.65,408.96 C222.84,407.99 222.05,407.01 221.25,406.04 C220.45,405.06 219.66,404.08 218.87,403.10 C218.07,402.13 217.27,401.15 216.46,400.19 C215.64,399.23 214.83,398.27 213.98,397.35 C213.14,396.42 212.28,395.50 211.39,394.61 C210.50,393.73 209.59,392.87 208.65,392.04 C207.71,391.22 206.74,390.43 205.75,389.67 C204.75,388.91 203.72,388.19 202.68,387.49 C201.64,386.80 200.57,386.14 199.49,385.50 C198.41,384.86 197.31,384.25 196.20,383.65 C195.10,383.04 193.98,382.47 192.87,381.88 C191.75,381.30 190.63,380.73 189.52,380.14 C188.41,379.55 187.31,378.95 186.23,378.32 C185.14,377.69 184.08,377.05 183.03,376.36 C181.99,375.67 180.97,374.95 179.97,374.20 C178.96,373.46 177.98,372.68 177.01,371.88 C176.04,371.09 175.08,370.27 174.12,369.45 C173.17,368.64 172.22,367.81 171.27,366.98 C170.32,366.15 169.37,365.32 168.42,364.49 C167.47,363.66 166.53,362.83 165.58,362.00 C164.63,361.17 163.68,360.34 162.74,359.51 C161.79,358.67 160.85,357.84 159.92,356.99 C158.98,356.14 158.06,355.29 157.15,354.42 C156.24,353.55 155.34,352.68 154.47,351.77 C153.60,350.87 152.75,349.95 151.92,349.00 C151.09,348.06 150.29,347.10 149.50,346.12 C148.71,345.14 147.95,344.14 147.19,343.14 C146.43,342.13 145.69,341.11 144.95,340.09 C144.21,339.08 143.48,338.05 142.75,337.02 C142.02,336.00 141.29,334.97 140.57,333.93 C139.86,332.90 139.14,331.86 138.44,330.81 C137.74,329.76 137.05,328.71 136.37,327.65 C135.70,326.59 135.03,325.52 134.38,324.44 C133.72,323.37 133.08,322.28 132.45,321.19 C131.82,320.10 131.20,319.00 130.60,317.90 C129.99,316.80 129.39,315.69 128.81,314.57 C128.23,313.45 127.65,312.33 127.09,311.20 C126.53,310.08 125.98,308.94 125.44,307.81 C124.89,306.67 124.36,305.53 123.84,304.38 C123.32,303.23 122.81,302.08 122.32,300.92 C121.82,299.76 121.34,298.60 120.87,297.43 C120.40,296.26 119.95,295.09 119.52,293.91 C119.08,292.73 118.67,291.54 118.27,290.34 C117.87,289.15 117.50,287.95 117.13,286.74 C116.77,285.54 116.43,284.33 116.08,283.11 C115.74,281.90 115.41,280.68 115.09,279.47 C114.76,278.25 114.43,277.03 114.12,275.82 C113.80,274.60 113.48,273.38 113.19,272.16 C112.89,270.94 112.61,269.72 112.36,268.49 C112.10,267.26 111.88,266.03 111.68,264.79 C111.48,263.56 111.32,262.31 111.17,261.07 C111.02,259.82 110.90,258.57 110.79,257.32 C110.68,256.07 110.58,254.82 110.49,253.56 C110.41,252.31 110.33,251.05 110.27,249.80 C110.22,248.54 110.17,247.28 110.15,246.03 C110.13,244.77 110.13,243.51 110.15,242.25 C110.17,240.99 110.20,239.74 110.25,238.48 C110.30,237.22 110.37,235.96 110.45,234.70 C110.53,233.45 110.62,232.19 110.73,230.94 C110.83,229.68 110.95,228.43 111.08,227.17 C111.20,225.92 111.35,224.67 111.50,223.42 C111.65,222.17 111.82,220.92 112.00,219.67 C112.17,218.42 112.36,217.18 112.57,215.94 C112.77,214.70 112.99,213.45 113.23,212.22 C113.47,210.99 113.73,209.77 114.02,208.55 C114.31,207.34 114.63,206.13 114.98,204.94 C115.34,203.75 115.73,202.57 116.13,201.40 C116.54,200.23 116.99,199.07 117.44,197.90 C117.89,196.74 118.36,195.58 118.82,194.42 C119.28,193.25 119.75,192.09 120.21,190.92 C120.67,189.75 121.13,188.58 121.59,187.40 C122.04,186.23 122.49,185.05 122.94,183.88 C123.39,182.70 123.84,181.52 124.29,180.34 C124.74,179.17 125.18,177.99 125.63,176.81 C126.09,175.64 126.53,174.46 127.00,173.30 C127.47,172.14 127.93,170.98 128.44,169.84 C128.95,168.70 129.47,167.57 130.04,166.46 C130.61,165.36 131.22,164.27 131.86,163.20 C132.50,162.13 133.18,161.08 133.87,160.04 C134.57,158.99 135.29,157.97 136.02,156.94 C136.75,155.92 137.50,154.91 138.25,153.90 C139.00,152.89 139.77,151.88 140.53,150.88 C141.30,149.89 142.08,148.90 142.87,147.91 C143.65,146.92 144.44,145.95 145.24,144.97 C146.04,143.99 146.84,143.02 147.65,142.05 C148.45,141.08 149.26,140.12 150.08,139.16 C150.89,138.20 151.71,137.24 152.55,136.30 C153.38,135.36 154.22,134.42 155.08,133.50 C155.94,132.58 156.81,131.67 157.69,130.78 C158.58,129.88 159.47,129.00 160.38,128.12 C161.28,127.25 162.20,126.39 163.13,125.54 C164.06,124.70 165.00,123.86 165.95,123.05 C166.91,122.24 167.88,121.45 168.87,120.69 C169.86,119.93 170.87,119.20 171.89,118.49 C172.92,117.78 173.97,117.10 175.02,116.43 C176.07,115.75 177.14,115.09 178.21,114.44 C179.28,113.78 180.36,113.13 181.44,112.49 C182.52,111.85 183.60,111.21 184.69,110.58 C185.78,109.95 186.88,109.33 187.98,108.72 C189.08,108.12 190.19,107.52 191.31,106.94 C192.43,106.36 193.56,105.80 194.69,105.25 C195.82,104.70 196.96,104.17 198.11,103.65 C199.26,103.14 200.42,102.64 201.58,102.15 C202.74,101.66 203.91,101.19 205.08,100.74 C206.26,100.29 207.44,99.85 208.62,99.43 C209.81,99.01 211.00,98.61 212.20,98.22 C213.40,97.83 214.60,97.46 215.81,97.10 C217.02,96.75 218.23,96.41 219.45,96.09 C220.66,95.77 221.89,95.47 223.11,95.18 C224.34,94.89 225.57,94.62 226.80,94.37 C228.04,94.11 229.27,93.88 230.51,93.65 C231.75,93.43 232.99,93.22 234.24,93.03 C235.48,92.83 236.73,92.64 237.98,92.46 C239.22,92.29 240.47,92.12 241.72,91.96 C242.97,91.80 244.22,91.65 245.47,91.51 C246.72,91.37 247.98,91.24 249.23,91.13 C250.48,91.02 251.73,90.93 252.99,90.86 C254.24,90.80 255.50,90.75 256.75,90.74 C258.01,90.72 259.26,90.73 260.52,90.75 C261.78,90.78 263.03,90.82 264.29,90.88 C265.55,90.94 266.80,91.02 268.06,91.10 C269.32,91.19 270.57,91.28 271.83,91.39 C273.08,91.50 274.34,91.62 275.59,91.75 C276.84,91.88 278.09,92.03 279.34,92.19 C280.59,92.35 281.84,92.52 283.08,92.72 C284.32,92.91 285.56,93.12 286.80,93.35 C288.04,93.57 289.28,93.82 290.51,94.08 C291.74,94.34 292.97,94.61 294.19,94.91 C295.41,95.20 296.63,95.51 297.85,95.84 C299.06,96.17 300.27,96.51 301.48,96.87 C302.68,97.24 303.88,97.62 305.08,98.01 C306.27,98.41 307.46,98.82 308.65,99.25 C309.83,99.68 311.01,100.13 312.18,100.59 C313.35,101.05 314.51,101.53 315.67,102.03 C316.82,102.53 317.97,103.04 319.11,103.57 C320.26,104.09 321.39,104.64 322.52,105.20 C323.64,105.76 324.76,106.34 325.87,106.93 C326.99,107.52 328.09,108.13 329.18,108.75 C330.28,109.37 331.36,110.01 332.44,110.66 C333.52,111.31 334.59,111.97 335.65,112.65 C336.70,113.33 337.75,114.03 338.80,114.74 C339.84,115.44 340.87,116.17 341.89,116.90 C342.91,117.63 343.93,118.38 344.93,119.14 C345.93,119.90 346.93,120.67 347.91,121.46 C348.90,122.24 349.88,123.03 350.84,123.84 C351.81,124.65 352.77,125.47 353.71,126.29 C354.66,127.12 355.60,127.96 356.53,128.81 C357.46,129.66 358.38,130.52 359.29,131.39 C360.20,132.27 361.10,133.15 361.98,134.04 C362.87,134.93 363.75,135.83 364.61,136.75 C365.48,137.66 366.33,138.59 367.17,139.53 C368.00,140.47 368.83,141.42 369.64,142.38 C370.45,143.34 371.25,144.32 372.04,145.30 C372.83,146.28 373.61,147.26 374.38,148.26 C375.14,149.26 375.90,150.26 376.64,151.28 C377.37,152.30 378.10,153.33 378.79,154.37 C379.49,155.41 380.17,156.47 380.82,157.54 C381.48,158.61 382.10,159.70 382.72,160.80 C383.34,161.89 383.94,163.00 384.53,164.11 C385.13,165.22 385.71,166.34 386.30,167.45 C386.89,168.56 387.47,169.68 388.05,170.79 C388.63,171.90 389.22,173.01 389.79,174.12 C390.36,175.23 390.93,176.33 391.47,177.44 C392.01,178.55 392.54,179.65 393.03,180.77 C393.52,181.89 393.99,183.02 394.43,184.16 C394.87,185.30 395.27,186.46 395.66,187.63 C396.05,188.80 396.42,189.99 396.78,191.18 C397.14,192.38 397.48,193.58 397.82,194.79 C398.15,196.00 398.48,197.22 398.80,198.44 C399.11,199.66 399.41,200.88 399.70,202.10 C399.98,203.33 400.26,204.56 400.52,205.79 C400.78,207.03 401.02,208.26 401.25,209.50 C401.48,210.74 401.70,211.98 401.91,213.22 C402.11,214.46 402.31,215.71 402.49,216.96 C402.67,218.20 402.84,219.45 402.99,220.70 C403.14,221.95 403.28,223.20 403.40,224.45 C403.52,225.71 403.63,226.96 403.71,228.22 C403.80,229.47 403.86,230.73 403.91,231.99 C403.96,233.24 403.99,234.50 404.02,235.76 C404.04,237.02 404.05,238.28 404.06,239.54 C404.06,240.80 404.07,242.06 404.06,243.32 C404.05,244.58 404.03,245.84 404.00,247.10 C403.96,248.35 403.92,249.61 403.85,250.87 C403.77,252.12 403.68,253.37 403.56,254.62 C403.43,255.87 403.28,257.12 403.11,258.36 C402.94,259.61 402.74,260.85 402.53,262.09 C402.32,263.33 402.10,264.57 401.86,265.81 C401.63,267.05 401.39,268.29 401.13,269.52 C400.88,270.75 400.62,271.98 400.34,273.21 C400.06,274.44 399.77,275.66 399.46,276.88 C399.15,278.10 398.82,279.32 398.48,280.53 C398.13,281.74 397.77,282.95 397.39,284.15 C397.02,285.35 396.62,286.55 396.22,287.74 C395.82,288.93 395.40,290.12 394.97,291.30 C394.54,292.49 394.10,293.67 393.64,294.84 C393.19,296.02 392.72,297.19 392.24,298.35 C391.76,299.52 391.27,300.68 390.77,301.83 C390.26,302.98 389.74,304.13 389.21,305.27 C388.68,306.42 388.13,307.55 387.57,308.68 C387.02,309.81 386.44,310.93 385.86,312.05 C385.27,313.16 384.67,314.27 384.06,315.37 C383.45,316.47 382.83,317.56 382.20,318.65 C381.56,319.74 380.92,320.83 380.27,321.91 C379.63,322.99 378.97,324.07 378.32,325.14 C377.66,326.22 377.00,327.29 376.33,328.36 C375.67,329.43 375.00,330.50 374.31,331.55 C373.63,332.60 372.93,333.65 372.21,334.67 C371.48,335.70 370.74,336.71 369.97,337.69 C369.20,338.68 368.40,339.65 367.58,340.60 C366.76,341.55 365.92,342.48 365.06,343.40 C364.20,344.31 363.32,345.21 362.43,346.09 C361.53,346.98 360.62,347.84 359.70,348.70 C358.77,349.55 357.83,350.38 356.88,351.20 C355.92,352.02 354.95,352.82 353.98,353.62 C353.01,354.42 352.02,355.20 351.04,355.99 C350.05,356.78 349.06,357.56 348.08,358.34 C347.09,359.12 346.10,359.90 345.11,360.68 C344.12,361.46 343.13,362.24 342.14,363.02 C341.15,363.80 340.16,364.58 339.17,365.36 C338.18,366.14 337.19,366.92 336.20,367.70 C335.21,368.48 334.21,369.26 333.22,370.03 C332.23,370.81 331.23,371.58 330.23,372.35 C329.23,373.11 328.23,373.88 327.21,374.62 C326.20,375.36 325.18,376.10 324.14,376.81 C323.11,377.53 322.06,378.22 321.00,378.89 C319.93,379.55 318.86,380.20 317.76,380.80 C316.66,381.40 315.55,381.98 314.42,382.52 C313.29,383.05 312.14,383.55 310.98,384.03 C309.83,384.51 308.65,384.95 307.48,385.39 C306.30,385.84 305.11,386.25 303.94,386.69 C302.76,387.13 301.57,387.56 300.41,388.03 C299.25,388.50 298.10,388.98 296.98,389.52 C295.86,390.07 294.75,390.64 293.70,391.28 C292.64,391.92 291.62,392.62 290.64,393.37 C289.67,394.12 288.74,394.94 287.84,395.80 C286.94,396.65 286.09,397.57 285.26,398.50 C284.42,399.43 283.62,400.40 282.82,401.36 C282.01,402.33 281.23,403.32 280.44,404.29 C279.64,405.27 278.85,406.26 278.06,407.23 C277.26,408.21 276.47,409.19 275.66,410.16 C274.86,411.13 274.06,412.10 273.26,413.07 C272.45,414.04 271.64,415.01 270.84,415.98 C270.03,416.95 269.22,417.91 268.41,418.88 C267.60,419.85 266.79,420.81 265.98,421.77 C265.16,422.74 264.35,423.70 263.53,424.65 C262.70,425.60 261.88,426.56 261.03,427.47 C260.18,428.38 259.32,429.29 258.42,430.12 C257.53,430.95 256.60,431.74 255.64,432.46 C254.67,433.18 253.66,433.81 252.64,434.42 C251.61,435.03 250.01,435.83 249.48,436.11 Z" fill="#ffffff" filter="url(#shadow)"/>
    <path d="M271 171 Q250 205 235 238 Q232 287 242 334" fill="none" stroke="#5985df" stroke-width="15" stroke-linecap="round"/>
    <circle cx="271" cy="171" r="28" fill="#76a4ee"/><circle cx="235" cy="238" r="28" fill="#1d2e57"/><circle cx="242" cy="334" r="26" fill="#5985df"/>
  </g>
  </g>
</svg>